
<svg xmlns="http://www.w3.org/2000/svg" xml:space="preserve" width="356px" height="200px" version="1.0" shape-rendering="geometricPrecision" text-rendering="geometricPrecision" image-rendering="optimizeQuality" fill-rule="evenodd" clip-rule="evenodd" viewBox="0 0 35600 20025" xmlns:xlink="http://www.w3.org/1999/xlink">
 <g id="Layer_x0020_1">
  <metadata id="CorelCorpID_0Corel-Layer"/>
  <g id="_2307479143184">
   <path fill="#E6E7E8" d="M0 0l35600 0 0 20025 -35600 0 0 -20025z"/>
   <path fill="#373435" fill-opacity="0.031373" d="M2082 17547c68,103 112,202 155,312 32,64 49,183 199,183 44,0 107,-14 163,-45 63,-33 111,-83 136,-159l60 -202 146 -72 10 10c-20,76 -25,149 -25,206 0,169 146,233 262,233 68,0 129,-33 129,-95 0,-80 -34,-216 -78,-338 68,-68 136,-136 214,-191l12 6c34,144 53,286 53,381 0,93 -41,196 -75,264 -70,132 -194,237 -344,237 -114,0 -241,-57 -328,-163l-5 0c-82,102 -209,194 -412,194l-63 0c-10,134 -39,229 -83,314 -121,237 -480,404 -818,404 -470,0 -706,-272 -706,-633 0,-223 73,-431 185,-578l92 38c-70,134 -117,261 -117,385 0,338 275,499 592,499 294,0 658,-187 724,-404 -25,-237 -114,-349 -250,-565 41,-72 94,-144 160,-221l12 0zm5421 -1274c99,62 196,136 291,220 -53,75 -119,143 -201,203 -95,-77 -190,-143 -287,-213 66,-74 131,-146 197,-210zm51 926c-160,0 -291,105 -291,183 0,167 320,219 703,217 -48,-196 -216,-400 -412,-400zm-359 895c208,0 390,-6 529,-41 155,-40 286,-118 286,-172 0,-14 0,-31 -5,-45 -87,8 -187,8 -274,8 -282,0 -498,-64 -583,-222 -21,-44 -36,-93 -36,-149 0,-153 66,-303 182,-406 97,-85 204,-138 313,-138 197,0 354,158 464,408 60,136 101,293 101,491 0,132 -36,243 -118,326 -153,148 -435,204 -867,204l-196 0 0 0 -51 0c-107,0 -184,-19 -245,-66l-10 0c3,25 5,49 5,72 0,97 -32,221 -97,320 -192,286 -400,410 -580,410 -182,0 -405,-70 -606,-161l36 -70c65,27 155,45 279,45 325,0 752,-313 805,-618 -12,-25 -34,-58 -65,-93 -95,-113 -155,-208 -211,-307 48,-95 92,-171 133,-240l17 -2c139,283 265,446 546,446l44 0 0 0 204 0zm-1408 299c24,-130 26,-276 26,-413l0 -202c0,-377 -48,-926 -87,-1283 68,-74 163,-160 238,-218l22 6c51,450 63,971 63,1452 0,126 -5,249 -17,340 -7,114 -73,200 -214,332l-31 -14zm-1449 -596c7,177 94,317 398,317 189,0 349,-49 526,-134 32,-14 49,-33 49,-49 0,-111 -85,-258 -228,-392 -139,-126 -323,-237 -495,-311 -59,-25 -78,-52 -78,-77 0,-51 68,-158 124,-235l19 -2c197,103 417,256 580,427 148,157 240,316 240,489 0,128 -39,249 -102,361 -216,109 -446,192 -674,192 -277,0 -466,-130 -466,-436 0,-33 0,-84 12,-150l95 0zm-501 -503l172 278c63,103 122,215 122,392l0 227c0,183 -117,379 -306,573 -148,132 -279,188 -400,188 -180,0 -386,-56 -624,-159l27 -70c75,20 162,37 269,37 342,-2 692,-252 852,-557 19,-35 26,-68 26,-91 0,-35 -19,-74 -34,-109 -87,-165 -184,-315 -291,-454 56,-88 112,-173 173,-257l14 2z"/>
   <path fill="#373435" fill-opacity="0.078431" d="M12330 3713l-80 95 0 529 735 0 192 -230 -180 230 9262 0 0 26 0 2305 1980 0 41 4 39 12 36 19 30 26 26 30 19 36 12 38 4 42 0 6277 -4 42 -12 39 -19 35 -26 31 -2535 3019 0 540 578 -688 20 -21 22 -18 23 -18 25 -16 26 -13 27 -12 27 -9 28 -8 29 -5 30 -3 31 -1 23 1 23 2 22 4 21 5 20 6 20 8 18 10 18 11 16 12 16 14 14 15 13 15 12 18 10 18 10 19 5 12 983 -1172 0 437 472 0 -472 562 0 810 950 -1131 0 783 437 -520 61 -71 -498 593 0 351 578 -688 20 -21 22 -18 23 -18 25 -16 26 -13 27 -12 27 -9 28 -8 29 -5 30 -3 31 -1 23 1 23 2 22 4 21 5 20 6 20 8 18 10 18 11 16 12 16 14 14 15 13 15 12 18 10 18 10 19 8 21 7 24 6 31 5 37 5 44 3 49 3 57 1 62 1 70 0 584 1059 -1262 -51 63 -44 69 -37 76 -30 82 -24 89 -17 96 -10 102 -3 109 2 88 8 84 13 80 0 0 572 -681 28 -31 30 -27 32 -22 35 -19 35 -14 38 -11 40 -6 41 -2 43 2 41 6 39 11 12 5 292 -348 0 253 -156 186 18 19 27 36 23 40 20 45 16 49 12 54 9 58 5 63 2 67 -2 64 -5 60 -10 56 -13 52 -17 48 -20 44 -24 40 -28 36 -435 517 12 0 79 -4 76 -14 72 -23 69 -32 66 -40 62 -51 43 -43 70 -84 -2 261 0 38 -1 35 -2 31 -3 29 -3 26 -3 22 -5 20 -5 16 -8 20 -10 18 -10 17 -11 16 -13 14 -377 450 75 1 59 0 56 -3 54 -4 51 -5 48 -7 46 -9 43 -10 41 -12 38 -13 37 -15 34 -15 33 -17 30 -18 28 -19 27 -21 24 -22 23 -23 -1684 2006 -570 0 -395 0 -2 0 -305 0 -566 0 -144 0 -212 0 -172 0 -152 0 -320 0 -274 0 -415 0 -471 0 -479 0 -68 0 -295 0 -1 0 -107 0 -478 0 -73 0 -399 0 -282 0 -269 0 -138 0 -64 0 -367 0 -40 0 -478 0 -69 0 -403 0 -51 0 -62 0 -253 0 -185 0 -283 0 -224 0 -69 0 -60 0 -44 0 -131 0 -139 0 -147 0 -55 0 -202 0 -165 0 -3 0 -158 0 -60 0 -75 0 -65 0 -60 0 -111 0 -4 0 -39 0 -159 0 -173 0 -116 0 -98 0 -25 0 -42 0 -18 0 -21 0 -74 0 -6 0 -53 0 -358 0 -4 0 -83 0 -59 0 -66 0 -112 0 -14 0 -18 0 -148 0 -27 0 -38 0 -22 0 -59 0 -77 0 -72 0 -24 0 -26 0 -9 0 -108 0 -22 0 -20 0 -80 0 -229 0 -18 0 -29 0 -9 0 -75 0 -21 0 -73 0 -54 0 -7 0 -94 0 -10 0 -63 0 -89 0 -119 0 -66 0 -230 0 -90 0 -113 0 -66 0 -235 0 -90 0 -187 0 -179 0 -39 0 -59 0 -22 0 -234 0 -35 0 -126 0 -67 0 -120 0 -10 0 -42 0 -333 0 -30 0 -27 0 -32 0 -305 0 -128 0 -23 0 -8 0 -13 0 -39 0 -44 0 -104 0 -83 0 -187 0 -79 0 -25 0 -21 0 -34 0 -5 0 -73 0 -91 0 -74 0 -28 0 -87 0 -32 0 -22 0 -24 0 -24 0 -21 0 -39 0 -73 0 -140 0 -7 0 -18 0 -45 0 -99 0 -192 0 -14 0 -22 0 -22 0 -8 0 -17 0 -25 0 -12 0 -1 0 -33 0 -7 0 0 0 -91 0 -6 0 -6 0 -15 0 -32 0 -12 0 -17 0 -52 0 -98 0 -90 0 -10 0 -26 0 -65 0 -113 0 -4 0 -18 0 -39 0 -2 0 -14 0 -28 0 -27 0 -169 0 -13 0 -23 0 -84 0 -86 0 -31 0 -59 0 -358 0 -22 0 -35 0 -30 0 -60 0 -83 0 -59 0 -126 0 -176 0 -56 0 -34 0 -83 0 -59 0 -140 0 -162 0 -56 0 -34 0 -83 0 -59 0 -358 0 -107 0 -1011 0 -89 0 -158 0 -2 0 -146 0 -96 0 -42 0 -90 0 -392 0 -27 0 -25 0 -90 0 -97 0 -811 0 -618 0 -21 0 -39 0 -455 0 0 0 -60 0 0 0 -563 0 0 -226 0 -848 0 -26 0 -529 0 -15 0 -28 0 -16 0 -26 0 -529 0 -15 0 -28 0 -1287 0 -46 11176 -13310 -12 23 -8 25 -2 26 0 1287 595 -709 9 -11 12 -10 14 -7 15 -5 15 -2 516 0z"/>
   <g>
    <g>
     <path fill="#00BCE6" fill-rule="nonzero" d="M18086 1793c3513,0 6360,2847 6360,6360 0,3513 -2847,6361 -6360,6361 -3513,0 -6361,-2848 -6361,-6361 0,-3513 2848,-6360 6361,-6360z"/>
     <path fill="#4265A0" fill-rule="nonzero" d="M15975 11886l2044 0 0 -1071 -2044 0 0 1071z"/>
     <path fill="#3F568D" fill-rule="nonzero" d="M15975 11886l516 0 0 -1071 -516 0 0 1071z"/>
     <path fill="#444C83" fill-rule="nonzero" d="M19380 11860l-4915 0c-72,0 -132,59 -132,132l0 664c0,73 60,133 132,133l4915 0 0 -929z"/>
     <path fill="#41406E" fill-rule="nonzero" d="M14848 12656l0 -664c0,-73 60,-132 133,-132l-516 0c-72,0 -132,59 -132,132l0 664c0,73 60,133 132,133l515 0c-72,0 -132,-60 -132,-133z"/>
     <path fill="#444C83" fill-rule="nonzero" d="M22708 3038l-11422 0c-73,0 -132,59 -132,132l0 7539c0,73 59,132 132,132l8094 0 0 -3966c0,-100 82,-182 182,-182l3279 0 0 -3523c0,-73 -60,-132 -133,-132z"/>
     <path fill="#FEFEFE" fill-rule="nonzero" d="M11735 9517c0,43 36,79 79,79l7566 0 0 -2721c0,-100 82,-182 182,-182l2697 0 0 -2356 -10524 0 0 5180z"/>
     <path fill="#C0DCF3" fill-rule="nonzero" d="M12250 9517l0 -5180 -515 0 0 5180c0,43 36,79 79,79l516 0c-44,0 -80,-36 -80,-79z"/>
     <path fill="#4265A0" fill-rule="nonzero" d="M16997 9859c198,0 358,160 358,357 0,198 -160,358 -358,358 -197,0 -357,-160 -357,-358 0,-197 160,-357 357,-357z"/>
     <path fill="#A5CFE8" fill-rule="nonzero" d="M19380 7300l-1387 0c-43,0 -78,35 -78,78l0 1549c0,43 35,78 78,78l1387 0 0 -1705z"/>
     <path fill="#96B1DC" fill-rule="nonzero" d="M18430 8927l0 -1549c0,-43 35,-78 78,-78l-515 0c-43,0 -78,35 -78,78l0 1549c0,43 35,78 78,78l515 0c-43,0 -78,-35 -78,-78z"/>
     <path fill="#A5CFE8" fill-rule="nonzero" d="M19562 6693l1210 0 0 -1697c0,-71 -58,-130 -130,-130l-7290 0c-71,0 -130,59 -130,130l0 1727c0,72 59,130 130,130l6029 0c11,-90 88,-160 181,-160z"/>
     <path fill="#96B1DC" fill-rule="nonzero" d="M13737 6723l0 -1727c0,-71 59,-130 130,-130l-515 0c-71,0 -130,59 -130,130l0 1727c0,72 59,130 130,130l515 0c-71,0 -130,-58 -130,-130z"/>
     <path fill="#F9A13C" fill-rule="nonzero" d="M22180 3713l-10366 0c-43,0 -79,36 -79,80l0 570 10524 0 0 -570c0,-44 -35,-80 -79,-80z"/>
     <path fill="#F58941" fill-rule="nonzero" d="M12330 3713l-516 0c-43,0 -79,36 -79,80l0 570 515 0 0 -570c0,-44 36,-80 80,-80z"/>
     <path fill="#00B8C8" fill-rule="nonzero" d="M15606 7712l-2185 0c-107,0 -195,-88 -195,-195 0,-108 88,-195 195,-195l2185 0c108,0 195,87 195,195 0,107 -87,195 -195,195z"/>
     <path fill="#00B8C8" fill-rule="nonzero" d="M15606 8347l-2185 0c-107,0 -195,-87 -195,-195 0,-107 88,-194 195,-194l2185 0c108,0 195,87 195,194 0,108 -87,195 -195,195z"/>
     <path fill="#00B8C8" fill-rule="nonzero" d="M15606 8983l-2185 0c-107,0 -195,-87 -195,-195 0,-107 88,-195 195,-195l2185 0c108,0 195,88 195,195 0,108 -87,195 -195,195z"/>
     <path fill="#00B8C8" fill-rule="nonzero" d="M17321 7712l-1125 0c-107,0 -194,-88 -194,-195 0,-108 87,-195 194,-195l1125 0c108,0 195,87 195,195 0,107 -87,195 -195,195z"/>
     <path fill="#00B8C8" fill-rule="nonzero" d="M17321 8347l-1125 0c-107,0 -194,-87 -194,-195 0,-107 87,-194 194,-194l1125 0c108,0 195,87 195,194 0,108 -87,195 -195,195z"/>
     <path fill="#00B8C8" fill-rule="nonzero" d="M17321 8983l-1125 0c-107,0 -194,-87 -194,-195 0,-107 87,-195 194,-195l1125 0c108,0 195,88 195,195 0,108 -87,195 -195,195z"/>
     <path fill="#4265A0" fill-rule="nonzero" d="M24239 6668c114,0 207,93 207,207l0 6277c0,114 -93,208 -207,208l-4677 0c-115,0 -208,-94 -208,-208l0 -6277c0,-114 93,-207 208,-207l4677 0 0 0z"/>
     <path fill="#FEFEFE" fill-rule="nonzero" d="M19918 12544c-72,0 -130,-58 -130,-129l0 -5218c0,-71 58,-129 130,-129l3965 0c71,0 130,58 130,129l0 5218c0,71 -59,129 -130,129l-3965 0z"/>
     <path fill="#C0DCF3" fill-rule="nonzero" d="M20303 12415l0 -5218c0,-71 58,-129 130,-129l-515 0c-72,0 -130,58 -130,129l0 5218c0,71 58,129 130,129l515 0c-72,0 -130,-58 -130,-129z"/>
     <path fill="#4265A0" fill-rule="nonzero" d="M21657 13064c-71,0 -130,-59 -130,-130l0 -51c0,-71 59,-130 130,-130l486 0c72,0 130,59 130,130l0 51c0,71 -58,130 -130,130l-486 0z"/>
     <path fill="#F9A13C" fill-rule="nonzero" d="M24013 7569l0 -372c0,-71 -59,-129 -130,-129l-3965 0c-72,0 -130,58 -130,129l0 372 4225 0 0 0z"/>
     <path fill="#F58941" fill-rule="nonzero" d="M20433 7068l-515 0c-72,0 -130,58 -130,129l0 372 515 0 0 -372c0,-71 58,-129 130,-129z"/>
     <path fill="#00B8C8" fill-rule="nonzero" d="M22785 9943l-1770 0c-107,0 -194,-87 -194,-195 0,-107 87,-194 194,-194l1770 0c108,0 195,87 195,194 0,108 -87,195 -195,195z"/>
     <path fill="#00B8C8" fill-rule="nonzero" d="M22785 10543l-1770 0c-107,0 -194,-87 -194,-194 0,-108 87,-195 194,-195l1770 0c108,0 195,87 195,195 0,107 -87,194 -195,194z"/>
     <path fill="#00B8C8" fill-rule="nonzero" d="M22785 11144l-1770 0c-107,0 -194,-87 -194,-195 0,-107 87,-195 194,-195l1770 0c108,0 195,88 195,195 0,108 -87,195 -195,195z"/>
     <path fill="#A5CFE8" fill-rule="nonzero" d="M23609 9095c0,71 -58,130 -130,130l-3158 0c-71,0 -130,-59 -130,-130l0 -1071c0,-71 59,-130 130,-130l3158 0c72,0 130,59 130,130l0 1071z"/>
     <path fill="#96B1DC" fill-rule="nonzero" d="M20706 9095l0 -1071c0,-71 59,-130 130,-130l-515 0c-71,0 -130,59 -130,130l0 1071c0,71 59,130 130,130l515 0c-71,0 -130,-59 -130,-130z"/>
     <path fill="#A5CFE8" fill-rule="nonzero" d="M23142 12136c0,72 -58,130 -130,130l-2224 0c-71,0 -130,-58 -130,-130l0 -439c0,-71 59,-129 130,-129l2224 0c72,0 130,58 130,129l0 439z"/>
     <path fill="#96B1DC" fill-rule="nonzero" d="M21174 12136l0 -439c0,-71 58,-129 129,-129l-515 0c-71,0 -130,58 -130,129l0 439c0,72 59,130 130,130l515 0c-71,0 -129,-58 -129,-130z"/>
    </g>
    <path fill="#4B4B4D" fill-rule="nonzero" d="M6944 17509l0 -2444 500 0 0 2028 1236 0 0 416 -1736 0zm3119 -564l472 79c-60,173 -156,304 -287,395 -130,90 -294,135 -490,135 -310,0 -540,-102 -689,-305 -117,-163 -177,-368 -177,-617 0,-296 78,-528 232,-696 155,-168 350,-252 587,-252 265,0 474,88 628,264 153,175 227,445 220,807l-1181 0c3,140 41,249 114,327 72,78 163,117 271,117 74,0 136,-20 186,-60 50,-40 88,-105 114,-194zm28 -479c-4,-137 -39,-242 -106,-313 -67,-71 -149,-107 -245,-107 -103,0 -188,38 -255,113 -67,75 -100,178 -98,307l704 0zm686 541l475 -73c20,92 61,161 123,208 61,48 148,71 258,71 123,0 214,-22 276,-67 42,-32 62,-74 62,-127 0,-35 -11,-65 -34,-89 -23,-22 -76,-43 -157,-62 -382,-85 -624,-162 -726,-231 -141,-97 -212,-231 -212,-403 0,-155 61,-286 184,-391 122,-106 311,-159 568,-159 244,0 426,41 545,120 119,81 201,199 245,356l-444 82c-19,-70 -55,-124 -109,-161 -53,-37 -129,-56 -229,-56 -125,0 -214,18 -269,53 -36,24 -54,56 -54,95 0,34 16,63 47,86 43,32 191,76 443,134 253,57 429,127 529,210 99,84 149,202 149,352 0,163 -69,305 -206,422 -137,118 -339,177 -608,177 -243,0 -436,-49 -578,-147 -142,-98 -235,-232 -278,-400zm1915 0l475 -73c20,92 61,161 123,208 61,48 148,71 258,71 123,0 214,-22 276,-67 42,-32 62,-74 62,-127 0,-35 -11,-65 -33,-89 -24,-22 -77,-43 -158,-62 -382,-85 -624,-162 -726,-231 -141,-97 -212,-231 -212,-403 0,-155 61,-286 184,-391 122,-106 311,-159 568,-159 244,0 426,41 545,120 119,81 201,199 246,356l-445 82c-19,-70 -55,-124 -109,-161 -53,-37 -129,-56 -229,-56 -125,0 -214,18 -269,53 -36,24 -54,56 -54,95 0,34 16,63 47,86 43,32 191,76 443,134 253,57 429,127 529,210 99,84 149,202 149,352 0,163 -69,305 -206,422 -136,118 -339,177 -608,177 -243,0 -436,-49 -578,-147 -142,-98 -235,-232 -278,-400zm3598 502l0 -2048 -730 0 0 -417 1956 0 0 417 -727 0 0 2048 -499 0zm1806 0l-471 0 0 -1787 437 0 0 254c75,-120 143,-199 203,-236 60,-37 129,-56 205,-56 108,0 212,30 312,89l-147 412c-79,-51 -154,-77 -222,-77 -66,0 -123,18 -169,54 -45,37 -82,103 -108,198 -26,95 -40,295 -40,598l0 551zm1241 -1236l-427 -76c48,-174 131,-303 249,-387 117,-84 292,-126 524,-126 211,0 368,25 471,75 103,50 176,113 218,190 42,77 63,217 63,423l-7 551c0,157 8,272 22,347 15,75 44,154 85,239l-468 0c-13,-31 -28,-77 -46,-137 -7,-28 -13,-47 -16,-55 -81,79 -167,138 -259,177 -91,40 -189,60 -293,60 -183,0 -328,-50 -433,-150 -106,-99 -159,-225 -159,-378 0,-100 25,-190 73,-270 48,-78 115,-139 202,-181 87,-42 212,-79 376,-110 220,-41 373,-80 458,-116l0 -48c0,-91 -22,-157 -67,-196 -45,-39 -130,-59 -255,-59 -84,0 -150,17 -197,50 -47,34 -85,93 -114,177zm633 382c-60,20 -156,45 -287,73 -131,28 -217,55 -258,82 -61,44 -92,99 -92,166 0,67 25,124 74,172 50,48 112,72 188,72 85,0 167,-28 244,-84 57,-43 95,-94 113,-156 12,-41 18,-117 18,-230l0 -95zm930 -1174l0 -437 472 0 0 437 -472 0zm0 2028l0 -1787 472 0 0 1787 -472 0zm2582 0l-471 0 0 -910c0,-193 -11,-318 -31,-374 -21,-57 -53,-100 -99,-132 -46,-32 -101,-47 -165,-47 -83,0 -157,22 -223,67 -65,45 -110,105 -134,178 -25,74 -37,211 -37,410l0 808 -472 0 0 -1787 438 0 0 263c156,-201 353,-301 591,-301 105,0 200,19 287,57 87,37 153,85 197,143 45,59 76,125 93,199 18,74 26,179 26,317l0 1109zm478 -2028l0 -437 472 0 0 437 -472 0zm0 2028l0 -1787 472 0 0 1787 -472 0zm2582 0l-471 0 0 -910c0,-193 -11,-318 -31,-374 -21,-57 -53,-100 -99,-132 -46,-32 -101,-47 -165,-47 -83,0 -157,22 -223,67 -66,45 -110,105 -134,178 -25,74 -37,211 -37,410l0 808 -472 0 0 -1787 437 0 0 263c157,-201 354,-301 592,-301 105,0 200,19 287,57 87,37 153,85 197,143 45,59 76,125 93,199 18,74 26,179 26,317l0 1109zm434 114l540 65c9,64 30,108 62,132 45,34 116,51 212,51 124,0 216,-18 278,-56 41,-24 73,-64 94,-119 15,-39 22,-112 22,-217l2 -261c-142,194 -321,291 -537,291 -240,0 -430,-101 -570,-304 -110,-160 -165,-360 -165,-598 0,-299 72,-528 216,-686 144,-157 324,-237 538,-237 221,0 404,97 547,291l0 -253 441 0 0 1603c0,210 -17,368 -52,472 -35,104 -84,186 -147,245 -62,60 -146,107 -251,140 -105,34 -238,50 -398,50 -303,0 -518,-52 -644,-156 -127,-104 -190,-235 -190,-396 0,-15 0,-35 2,-57zm423 -1043c0,189 37,327 110,415 73,88 164,132 271,132 115,0 212,-45 292,-135 79,-90 119,-224 119,-400 0,-185 -38,-322 -114,-412 -76,-89 -172,-134 -289,-134 -113,0 -206,44 -279,132 -73,88 -110,221 -110,402z"/>
   </g>
  </g>
 </g>
</svg>