
<svg xmlns="http://www.w3.org/2000/svg" xml:space="preserve" width="9.40646cm" height="5.29166cm" version="1.1" style="shape-rendering:geometricPrecision; text-rendering:geometricPrecision; image-rendering:optimizeQuality; fill-rule:evenodd; clip-rule:evenodd"
viewBox="0 0 9406 5292"
 xmlns:xlink="http://www.w3.org/1999/xlink">
 <defs>
  <style type="text/css">
   <![CDATA[
    .fil6 {fill:#FEFEFE}
    .fil3 {fill:#EFCDA6}
    .fil4 {fill:#CEAF92}
    .fil9 {fill:#84544D}
    .fil7 {fill:#5F433C}
    .fil8 {fill:#4F3936}
    .fil10 {fill:#42312F}
    .fil5 {fill:#282828}
    .fil0 {fill:#E6E7E8}
    .fil11 {fill:#5F433C;fill-rule:nonzero}
    .fil2 {fill:#373435;fill-opacity:0.031373}
    .fil1 {fill:#373435;fill-opacity:0.101961}
   ]]>
  </style>
 </defs>
 <g id="Layer_x0020_1">
  <metadata id="CorelCorpID_0Corel-Layer"/>
  <polygon class="fil0" points="0,0 9406,0 9406,5292 0,5292 "/>
  <path class="fil1" d="M422 5292l-29 0 -6 0 -7 0 -12 0 0 0 -12 0 -14 0 -1 0 -69 0 -122 0 -105 0 -34 0 -4 0 -7 0 0 -22 0 -1 0 -11 0 -8 0 -15 0 -5 0 -8 0 -1 0 -1 0 -12 0 -2 0 -21 0 -56 0 -2 0 -11 0 -22 0 -13 0 -2 0 -16 0 -34 0 -16 0 -36 0 -3 0 -7 0 -1 0 -3 0 -24 0 -28 0 -8 0 0 0 -11 0 -5 0 -1 0 -2 0 -27 0 -6 0 0 0 -2 0 -6 0 -2 0 -1 0 -3 0 -5 0 -17 0 -10 0 -6 0 -36 0 -3 0 -23 0 -19 0 -35 0 -4 0 -11 0 0 0 -11 0 -47 0 -13 0 -3 0 0 0 -19 0 -18 0 -3 0 -1 0 -9 0 0 0 -2 0 -15 0 -11 0 -5 0 -19 0 -4 0 -3 0 -2 0 -1 0 -7 0 -3 0 -4 0 -3 0 -13 0 -2 0 -8 0 -1 0 -6 0 -7 0 -3 0 -5 0 -13 0 0 0 -1 0 -9 0 -3 0 -12 0 -3 0 0 0 -4 0 -20 0 -5 0 0 0 -4 0 -14 0 -10 0 -11 0 -9 0 -3 0 -3 0 -2 0 -3 0 -51 0 -11 0 -3 0 -1 0 -1 0 0 0 -1 0 0 0 -28 0 -5 0 -17 0 -17 0 -4 0 0 0 -7 0 -9 0 -10 0 -4 0 -2 0 -12 0 -3 0 -14 0 -4 0 -9 0 -7 0 -10 0 -4 0 -30 0 -12 0 -5 0 0 0 -10 0 -9 0 -3 0 -10 0 -12 0 -1 0 -31 0 -3 0 -4 0 -40 0 -56 0 -4 0 -23 0 -18 0 -19 0 -20 0 -8 0 -5 0 -34 0 -4 0 -20 0 -2 0 -7 0 -11 0 -2 0 -6 0 -3 0 -11 0 -80 0 -32 0 -60 0 -7 0 -57 0 -14 0 -16 0 -14 0 -56 0 -8 0 -14 0 -39 0 -172 0 -2 0 -54 0 -51 0 -51 0 -17 0 -148 3185 -1688 -23 12 -25 15 -26 17 -27 19 -28 21 -29 23 -30 25 -31 26 -31 27 -32 29 -32 29 -32 30 -32 31 -32 31 -31 31 -31 31 -23 24 674 -354 -10 24 180 -95 -34 20 -33 20 -31 21 -29 22 -27 23 -25 24 -24 24 -3 3 -4 9 129 -67 -1 2 -4 5 -7 9 -9 12 -11 16 -13 19 -15 22 -16 25 -18 28 -19 31 -20 34 -21 36 -22 39 -22 42 -23 44 -23 46 -14 30 383 -197 1 31 0 12 1152 -592 0 25 -1153 592 -2 19 -4 26 -6 24 -7 22 7 -3 13 -5 14 -4 14 -4 14 -4 6 -2 304 -156 53 -10 49 -8 45 -6 42 -3 38 -1 35 0 32 2 29 4 26 5 23 6 21 8 18 9 16 9 14 10 12 11 9 11 254 -128 21 -10 21 -8 21 -5 11 -1 2 -1 4 0 3 0 -1 1 20 2 25 5 24 8 23 10 22 12 4 2 756 -378 -3 2 -1 2 1 3 1 1 3 3 2 2 11 -6 443 186 108 263 34 41 35 45 33 44 32 44 30 43 28 42 27 41 25 40 24 39 22 38 21 36 19 35 18 33 16 32 15 30 14 28 12 26 11 24 10 22 9 20 7 17 6 15 5 12 4 10 3 7 2 4 1 1 -196 400 -146 66 2 2 8 7 12 6 13 3 13 0 13 -3 -151 68 -1 6 -4 13 -5 13 -6 13 -6 13 -7 13 -7 13 -8 12 -8 12 -9 12 -9 12 -9 12 -9 12 -9 12 -9 12 -9 12 -9 12 -9 12 -9 12 -9 12 -9 12 -8 12 -8 12 -7 12 -7 12 -6 12 -5 12 -5 12 -4 12 -3 12 -2 12 -5 34 -7 32 -9 31 -11 30 -13 29 -15 28 -17 27 -19 26 -21 25 -23 24 -25 23 -27 22 -30 20 -32 19 -34 18 -37 17 -146 63 17 -5 17 -7 -828 360 0 76 -57 25 0 33 57 0 0 27 196 -84 0 81 383 -164 0 83 -57 24 0 33 57 0 0 33 77 -33 61 0 -138 58 0 8 278 -118 -10 4 -9 5 -9 6 -8 6 -8 7 -7 8 -7 8 -6 9 -6 9 -5 10 -5 10 -4 11 -3 11 -1 3 126 -53 8 -2 9 -1 9 0 9 0 9 1 8 2 4 2 450 -189 -4 2 -4 2 -3 2 -3 3 -3 3 -2 3 -2 3 -2 4 -1 4 -1 4 -1 4 0 4 0 4 1 4 1 4 1 4 2 4 2 3 2 3 3 3 3 3 3 2 4 2 4 2 4 1 4 1 5 1 5 0 5 0 5 -1 5 -1 4 -1 -291 122 0 27 234 -98 0 71 518 -216 0 488 77 0 -2429 980 -73 0 -68 0 -74 0 -55 0 -28 0 -109 0 -41 0 -39 0 -73 0 -37 0 -68 0 -41 0 -1 0 -73 0 -21 0 -96 0 -47 0 -17 0 -7 0 -132 0 -7 0 -68 0 -8 0 -43 0 -54 0 -52 0 -61 0 0 0 -11 0 -34 0 -34 0 -49 0 -26 0 -2 0 -43 0 -55 0 -4 0 -41 0 -33 0 -76 0 -17 0 -56 0 -71 0 -52 0 -72 0 -52 0 -78 0 -18 0 -14 0 -18 0 -46 0 -49 0 -9 0 -35 0 -21 0 -13 0 -7 0 -51 0 -52 0 -67 0 -3 0 -23 0 -21 0 -1 0 -8 0 -64 0 -37 0 -7 0 -7 0 -4 0 -6 0 -34 0 -55 0 -18 0 -7 0 -2 0 -5 0 0 0 -1 0 0 0 -1 0 -23 0 -25 0 -77 0 -12 0 -26 0 -67 0 -68 0 -48 0 -8 0 -3 0 -3 0 -11 0 -26 0 -13 0 -16 0 -3 0 -16 0 -3 0 -22 0 -11 0 -3 0 -2 0 -1 0 -20 0 -52 0 -42 0 -4 0 -36 0 0 0 -32 0 -2 0 -15 0 -24 0 -14 0 -18 0 -30 0 -26 0 0 0 -22 0 -7 0 -18 0 -17 0 -72 0zm3384 -4358l0 0zm2409 1730l0 0 86 -39 -86 39z"/>
  <path class="fil2" d="M555 4634c18,27 29,53 41,82 8,17 13,48 52,48 12,0 28,-4 43,-12 17,-9 29,-22 36,-42l16 -53 38 -19 3 3c-5,20 -6,39 -6,54 0,45 38,62 69,62 18,0 34,-9 34,-25 0,-21 -9,-57 -21,-89 18,-18 36,-36 57,-50l3 2c9,38 14,76 14,101 0,24 -11,52 -20,70 -19,35 -51,63 -91,63 -30,0 -63,-15 -86,-43l-1 0c-22,27 -55,51 -109,51l-17 0c-3,35 -10,61 -22,83 -32,63 -127,107 -216,107 -124,0 -186,-72 -186,-167 0,-59 19,-114 49,-152l24 10c-18,35 -31,69 -31,102 0,89 72,132 156,132 77,0 174,-50 191,-107 -6,-63 -30,-92 -66,-149 11,-19 25,-38 42,-58l3 0 0 0zm1431 -336c26,16 52,36 77,58 -14,20 -31,38 -53,53 -25,-20 -50,-38 -76,-56 17,-20 35,-39 52,-55zm13 244c-42,0 -77,28 -77,48 0,44 85,58 185,57 -13,-52 -57,-106 -109,-106zm-95 236c55,0 103,-2 140,-11 41,-10 76,-31 76,-45 0,-4 0,-8 -1,-12 -23,2 -49,2 -72,2 -74,0 -131,-17 -154,-59 -6,-11 -10,-25 -10,-39 0,-40 17,-80 48,-107 26,-22 54,-36 83,-36 52,0 94,42 122,108 16,36 27,77 27,129 0,35 -10,64 -31,86 -40,39 -115,54 -229,54l-52 0 0 0 -13 0c-28,0 -49,-5 -64,-17l-3 0c1,6 1,13 1,19 0,26 -8,58 -26,84 -51,76 -106,108 -153,108 -48,0 -107,-19 -160,-43l10 -19c17,7 41,12 74,12 86,0 198,-83 212,-163 -3,-7 -9,-15 -17,-25 -25,-30 -41,-55 -56,-81 13,-25 24,-45 35,-63l4 -1c37,75 70,118 144,118l11 0 0 0 54 0 0 0zm-372 79c6,-34 7,-73 7,-109l0 -53c0,-100 -13,-244 -23,-339 18,-20 43,-43 63,-58l6 2c13,119 17,257 17,383 0,33 -1,66 -4,90 -2,30 -19,53 -57,88l-8 -4 0 0zm-382 -157c2,47 25,84 105,84 50,0 92,-13 139,-35 8,-4 13,-9 13,-13 0,-29 -22,-68 -60,-103 -36,-33 -85,-63 -131,-82 -15,-7 -20,-14 -20,-20 0,-14 18,-42 33,-62l5 -1c52,27 110,67 153,113 39,41 63,83 63,129 0,34 -10,66 -27,95 -57,29 -118,50 -178,50 -73,0 -123,-34 -123,-115 0,-9 0,-22 3,-40l25 0 0 0zm-132 -133l45 73c17,27 32,57 32,103l0 60c0,48 -31,100 -81,151 -39,35 -73,50 -105,50 -48,0 -102,-15 -165,-42l7 -19c20,6 43,10 71,10 90,-1 182,-66 225,-147 5,-9 7,-18 7,-24 0,-9 -5,-20 -9,-29 -23,-44 -49,-83 -77,-120 15,-23 29,-46 45,-68l4 1 0 0z"/>
  <g id="_2373115376720">
   <g>
    <path class="fil3" d="M6243 1719c-7,-157 14,-296 -57,-414 -171,-293 -600,-464 -1456,-464l0 25 -18 0 18 0 0 -25c-857,0 -1306,171 -1478,468 -68,121 -61,257 -71,414 -7,125 -64,257 -39,400 29,186 39,371 68,542 21,139 214,257 232,389 50,364 428,532 1285,532l0 29 -21 0 25 0 0 -29c857,0 1221,-168 1267,-532 18,-136 196,-250 218,-389 29,-171 39,-357 68,-542 25,-143 -32,-278 -39,-403l0 0z"/>
    <path class="fil4" d="M4716 1847c153,4 261,100 360,189 118,104 318,175 400,264 82,89 189,178 228,318 39,139 50,318 50,364 0,46 25,36 96,0 168,-82 353,-303 353,-303 -21,139 -203,264 -221,396 -43,364 -396,539 -1271,539l-4 0 21 0 -14 -1767z"/>
    <path class="fil4" d="M5280 1569c32,111 146,485 -75,360 0,0 93,54 150,257 61,203 207,228 207,228 0,0 239,46 418,-107 150,-128 175,-357 111,-532 -64,-171 -178,-225 -346,-261 -168,-39 -503,-71 -464,54z"/>
    <path class="fil5" d="M5704 1661c173,0 314,141 314,314 0,173 -141,314 -314,314 -173,0 -314,-141 -314,-314 0,-173 141,-314 314,-314z"/>
    <path class="fil6" d="M5622 1754c45,0 82,37 82,82 0,45 -37,82 -82,82 -45,0 -82,-37 -82,-82 0,-45 37,-82 82,-82z"/>
    <path class="fil3" d="M5226 1961c0,0 282,193 435,382 153,189 150,225 150,225l-111 50c0,0 -157,-296 -350,-407 -196,-111 -218,-203 -218,-203l93 -46z"/>
    <path class="fil4" d="M4726 1847c-153,4 -268,100 -371,189 -118,104 -325,175 -407,264 -82,89 -193,178 -232,318 -39,139 -54,318 -54,364 0,46 7,50 -96,0 -168,-79 -353,-303 -353,-303 21,139 203,264 221,396 50,364 403,539 1278,539l18 0 -4 -1767z"/>
    <path class="fil7" d="M5554 2450c-171,-211 -446,-407 -828,-407l-4 0c-382,0 -657,196 -828,407 -178,218 -164,303 -164,510 0,749 264,535 439,628 178,89 364,61 553,61l4 0c193,0 375,25 553,-64 175,-89 439,132 439,-617 4,-207 14,-300 -164,-517l0 0z"/>
    <path class="fil8" d="M4709 2229c0,0 -25,346 -75,414l93 -21 -18 -393z"/>
    <path class="fil8" d="M4734 2229c0,0 25,346 75,414l-93 -21 18 -393z"/>
    <path class="fil7" d="M4434 2147c-36,-82 93,-214 296,-218 203,0 332,132 296,218 -36,86 -164,111 -296,114 -128,-4 -261,-29 -296,-114l0 0z"/>
    <path class="fil5" d="M4730 2229c0,-14 121,-18 186,-61 0,0 -132,43 -161,25 -29,-14 -36,-57 -36,-57 0,0 -11,43 -32,57 -25,14 -175,-25 -175,-25 0,0 200,50 200,61 0,11 -4,46 -4,71 0,89 0,311 14,328 21,32 14,-239 14,-328 -4,-29 -4,-57 -7,-71z"/>
    <path class="fil9" d="M4737 2707c61,0 168,43 264,111 -93,-104 -203,-175 -264,-175 -64,0 -200,79 -296,193 100,-79 228,-129 296,-129z"/>
    <path class="fil8" d="M4712 3339c-136,0 -268,-43 -389,-75 -25,-7 -50,11 -75,4 -225,-71 -407,-193 -518,-346l0 36c0,749 264,539 439,628 178,89 364,61 553,61l4 0c193,0 375,25 553,-64 175,-89 439,128 439,-621 0,-29 0,-57 4,-82 -103,168 -293,300 -528,378 -21,7 -71,-11 -93,-7 -128,43 -243,89 -389,89l0 0z"/>
    <path class="fil8" d="M5080 2936c0,0 89,268 29,385l82 -36c0,0 -64,-271 -111,-350l0 0zm-707 0c0,0 -89,268 -29,385l-82 -36c0,0 61,-271 111,-350z"/>
    <path class="fil4" d="M4145 1569c-32,111 -146,485 75,360 0,0 -93,54 -150,257 -57,203 -207,228 -207,228 0,0 -239,46 -418,-107 -150,-128 -175,-357 -111,-532 64,-175 178,-225 346,-261 168,-39 500,-71 464,54l0 0z"/>
    <path class="fil5" d="M4726 2643c96,0 396,207 400,460l0 -14c0,-264 -243,-475 -400,-475 -157,0 -400,214 -400,475l0 14c4,-253 303,-460 400,-460z"/>
    <path class="fil10" d="M4778 2045c15,-4 34,16 41,45 7,29 1,55 -14,59 -15,4 -34,-16 -41,-45 -7,-29 -1,-55 14,-59z"/>
    <path class="fil10" d="M4653 2046c15,5 20,31 11,60 -9,28 -28,47 -43,43 -15,-5 -20,-31 -11,-60 9,-28 28,-47 43,-43z"/>
    <path class="fil5" d="M3738 1661c173,0 314,141 314,314 0,173 -141,314 -314,314 -173,0 -314,-141 -314,-314 0,-173 141,-314 314,-314z"/>
    <path class="fil6" d="M3820 1754c45,0 82,37 82,82 0,45 -37,82 -82,82 -45,0 -82,-37 -82,-82 0,-45 37,-82 82,-82z"/>
    <path class="fil9" d="M4819 1979c0,-4 -82,36 -104,39 -21,-4 -104,-43 -104,-39l207 0z"/>
    <path class="fil3" d="M4195 1961c0,0 -282,193 -435,382 -153,189 -150,225 -150,225l111 50c0,0 157,-296 350,-407 193,-111 218,-203 218,-203l-93 -46z"/>
    <path class="fil4" d="M5694 2514c0,0 168,82 289,32 143,-61 164,-243 164,-243 0,0 -107,321 -453,211zm-1956 0c0,0 -168,82 -289,32l-4 0c-107,-61 -161,-243 -161,-243 0,0 107,321 453,211zm1235 -1096c0,0 -107,-150 -250,-153l7 0c-107,4 -246,153 -246,153 121,-118 246,-114 246,-114 0,0 118,-4 243,114zm246 464c0,0 -211,-221 -493,-228l4 0 4 0c-286,7 -493,228 -493,228 246,-171 457,-168 493,-168 -4,0 239,-4 485,168l0 0zm610 -493c0,0 96,264 310,375 0,0 -335,-39 -310,-375zm-2252 0c0,0 -96,264 -311,375 0,0 335,-39 311,-375z"/>
    <path class="fil4" d="M5619 933c0,0 385,485 443,671 57,189 100,964 150,1074l178 -764 -328 -796 -443 -186zm-1813 0c0,0 -385,485 -443,671 -57,189 -100,964 -150,1074l-178 -764 328 -796 443 -186zm1706 439c7,0 11,4 14,4 4,0 -4,-4 -14,-4zm-1581 0c93,-18 246,-21 368,18 153,54 29,250 61,261 32,11 75,-136 360,-121 289,14 321,143 360,121 39,-21 -39,-357 393,-278 0,0 -453,-121 -432,207 0,0 -261,-200 -625,-21 4,0 96,-307 -485,-186z"/>
    <path class="fil7" d="M5601 933c0,0 414,346 535,746 121,400 71,885 164,946 132,86 282,-425 332,-478 79,-86 339,-303 357,-343 0,-1 0,-1 0,-2l0 0c0,-56 -532,-635 -768,-751 -289,-136 -646,-146 -621,-118l0 0z"/>
    <path class="fil8" d="M5954 1148c0,0 489,625 482,1403l196 -400c-4,0 -175,-510 -678,-1003l0 0z"/>
    <path class="fil7" d="M3806 933c0,0 -414,346 -535,746 -121,400 -71,885 -164,946 -132,86 -282,-425 -332,-478 -79,-86 -339,-303 -357,-343 0,-1 0,-1 0,-2 0,-56 532,-635 768,-751 289,-136 646,-146 621,-118l0 0z"/>
    <path class="fil8" d="M3452 1148c0,0 -489,625 -482,1403l-193 -400c0,0 171,-510 675,-1003z"/>
    <path class="fil4" d="M6233 2564c0,0 -36,193 -93,253 -57,61 -18,-46 -18,-46 0,0 61,-32 50,-278 -11,-246 61,71 61,71l0 0zm-3044 0c0,0 36,193 93,253 57,61 18,-46 18,-46 0,0 -61,-32 -50,-278 11,-246 -61,71 -61,71l0 0z"/>
    <path class="fil8" d="M4355 2390c16,0 29,13 29,29 0,16 -13,29 -29,29 -16,0 -29,-13 -29,-29 0,-16 13,-29 29,-29z"/>
    <path class="fil8" d="M4191 2561c16,0 29,13 29,29 0,16 -13,29 -29,29 -16,0 -29,-13 -29,-29 0,-16 13,-29 29,-29z"/>
    <path class="fil8" d="M4138 2390c16,0 29,13 29,29 0,16 -13,29 -29,29 -16,0 -29,-13 -29,-29 0,-16 13,-29 29,-29z"/>
    <path class="fil8" d="M5051 2390c16,0 29,13 29,29 0,16 -13,29 -29,29 -16,0 -29,-13 -29,-29 0,-16 13,-29 29,-29z"/>
    <path class="fil8" d="M5215 2561c16,0 29,13 29,29 0,16 -13,29 -29,29 -16,0 -29,-13 -29,-29 0,-16 13,-29 29,-29z"/>
    <path class="fil8" d="M5269 2390c16,0 29,13 29,29 0,16 -13,29 -29,29 -16,0 -29,-13 -29,-29 0,-16 13,-29 29,-29z"/>
   </g>
   <path class="fil11" d="M3012 4144c0,53 -12,96 -36,127 -24,32 -57,47 -97,47 -38,0 -68,-12 -91,-37l0 163 -77 0 0 -476 71 0 3 35c23,-28 54,-41 93,-41 42,0 75,16 99,47 24,31 36,75 36,130l0 5zm-77 -7c0,-34 -7,-62 -21,-82 -14,-20 -33,-30 -59,-30 -32,0 -54,13 -68,39l0 153c14,27 37,40 69,40 25,0 44,-10 58,-30 14,-20 21,-50 21,-90zm351 142c-23,27 -55,40 -97,40 -37,0 -66,-11 -85,-33 -19,-22 -29,-53 -29,-95l0 -223 77 0 0 222c0,44 18,65 54,65 37,0 63,-13 76,-40l0 -247 77 0 0 344 -73 0 -2 -34zm140 -141c0,-53 13,-96 38,-128 25,-32 58,-48 100,-48 39,0 70,14 93,41l4 -35 69 0 0 334c0,45 -14,81 -42,107 -28,26 -66,39 -114,39 -25,0 -50,-5 -74,-16 -24,-10 -42,-24 -55,-41l37 -46c24,28 53,42 87,42 26,0 46,-7 61,-21 15,-14 22,-34 22,-61l0 -23c-22,25 -52,37 -89,37 -40,0 -73,-16 -99,-48 -26,-32 -38,-76 -38,-133zm77 7c0,35 7,62 21,82 14,20 34,30 59,30 31,0 54,-13 69,-40l0 -151c-15,-26 -38,-39 -69,-39 -25,0 -45,10 -59,30 -14,20 -21,50 -21,89zm361 78c16,0 27,4 36,13 8,9 13,20 13,33 0,13 -4,24 -13,32 -9,8 -21,13 -36,13 -15,0 -27,-4 -35,-13 -9,-8 -13,-19 -13,-33 0,-13 4,-24 13,-33 8,-9 20,-13 36,-13zm222 -254l0 375c0,35 -9,62 -26,81 -18,19 -43,28 -77,28 -14,0 -28,-2 -41,-5l0 -61c8,2 17,3 27,3 26,0 39,-14 40,-42l0 -378 77 0zm-84 -89c0,-12 4,-22 11,-30 8,-8 18,-12 32,-12 14,0 25,4 32,12 8,8 12,18 12,30 0,12 -4,21 -12,29 -8,8 -18,12 -32,12 -14,0 -25,-4 -32,-12 -7,-8 -11,-17 -11,-29zm359 340c0,-14 -6,-24 -17,-32 -11,-7 -30,-14 -56,-19 -26,-5 -48,-12 -66,-21 -39,-19 -58,-46 -58,-81 0,-30 12,-55 38,-74 25,-20 57,-30 95,-30 41,0 74,10 100,31 25,20 38,47 38,79l-77 0c0,-15 -5,-27 -16,-37 -11,-10 -26,-15 -44,-15 -17,0 -31,4 -42,12 -11,8 -16,18 -16,32 0,12 5,21 15,27 10,7 30,13 60,20 30,7 54,15 72,24 17,9 30,20 38,33 8,13 12,29 12,47 0,31 -13,56 -38,75 -26,19 -59,29 -101,29 -28,0 -53,-5 -75,-15 -22,-10 -39,-24 -52,-42 -12,-18 -19,-37 -19,-58l75 0c1,18 8,32 21,42 13,10 30,15 51,15 20,0 36,-4 46,-12 11,-8 16,-18 16,-30zm437 -334l0 83 61 0 0 57 -61 0 0 192c0,13 3,23 8,29 5,6 15,9 28,9 9,0 18,-1 27,-3l0 60c-18,5 -35,7 -51,7 -59,0 -89,-33 -89,-98l0 -195 -57 0 0 -57 57 0 0 -83 77 0zm328 394c-23,27 -55,40 -97,40 -37,0 -66,-11 -85,-33 -19,-22 -29,-53 -29,-95l0 -223 77 0 0 222c0,44 18,65 54,65 37,0 63,-13 76,-40l0 -247 77 0 0 344 -73 0 -2 -34zm250 -394l0 83 61 0 0 57 -61 0 0 192c0,13 3,23 8,29 5,6 15,9 28,9 9,0 18,-1 27,-3l0 60c-18,5 -35,7 -51,7 -59,0 -89,-33 -89,-98l0 -195 -57 0 0 -57 57 0 0 -83 77 0zm105 252c0,-34 7,-64 20,-91 13,-27 32,-48 56,-63 24,-15 52,-22 83,-22 46,0 84,15 113,45 29,30 45,70 47,119l1 18c0,34 -7,64 -20,91 -13,27 -32,47 -56,62 -24,15 -52,22 -84,22 -49,0 -87,-16 -117,-48 -29,-32 -44,-75 -44,-129l0 -4zm77 7c0,35 7,63 22,83 15,20 35,30 61,30 26,0 46,-10 61,-31 14,-20 22,-50 22,-90 0,-35 -8,-62 -22,-83 -15,-20 -35,-31 -61,-31 -25,0 -45,10 -60,30 -15,20 -22,50 -22,90zm488 -105c-10,-2 -21,-3 -31,-3 -35,0 -59,14 -72,41l0 235 -77 0 0 -344 74 0 2 39c18,-30 44,-45 78,-45 11,0 20,2 27,5l0 73zm131 274l-77 0 0 -344 77 0 0 344zm-82 -434c0,-12 4,-22 11,-30 7,-8 18,-12 32,-12 14,0 25,4 32,12 8,8 11,18 11,30 0,12 -4,21 -11,29 -8,8 -18,12 -32,12 -14,0 -25,-4 -32,-12 -8,-8 -11,-17 -11,-29zm372 434c-3,-7 -6,-17 -9,-32 -25,26 -55,38 -90,38 -35,0 -63,-10 -84,-29 -22,-20 -33,-44 -33,-73 0,-37 14,-65 41,-85 27,-20 66,-29 117,-29l47 0 0 -23c0,-18 -5,-32 -15,-43 -10,-11 -25,-16 -45,-16 -18,0 -32,4 -43,13 -11,9 -17,20 -17,34l-77 0c0,-19 6,-36 19,-53 12,-17 30,-29 51,-39 21,-9 46,-14 72,-14 40,0 72,10 96,31 24,20 36,49 37,85l0 155c0,31 4,56 13,74l0 5 -79 0zm-85 -56c15,0 30,-4 43,-11 14,-7 24,-17 30,-30l0 -65 -42 0c-29,0 -50,5 -64,15 -14,10 -22,24 -22,42 0,15 5,26 15,35 10,9 23,13 40,13zm314 56l-77 0 0 -488 77 0 0 488z"/>
  </g>
 </g>
</svg>
