<svg xmlns="http://www.w3.org/2000/svg" xml:space="preserve" width="356px" height="200px" version="1.1" style="shape-rendering:geometricPrecision; text-rendering:geometricPrecision; image-rendering:optimizeQuality; fill-rule:evenodd; clip-rule:evenodd"
viewBox="0 0 356000 200000"
 xmlns:xlink="http://www.w3.org/1999/xlink"
 enable-background="new 0 0 128 128">
 <defs>
  <style type="text/css">
   <![CDATA[
    .fil3 {fill:#00050A}
    .fil0 {fill:#E6E7E8}
    .fil2 {fill:#373435;fill-opacity:0.031373}
    .fil1 {fill:#373435;fill-opacity:0.101961}
    .fil4 {fill:url(#id0)}
    .fil5 {fill:url(#id1)}
   ]]>
  </style>
  <linearGradient id="id0" gradientUnits="userSpaceOnUse" x1="151150" y1="131630" x2="228510" y2="131630">
   <stop offset="0" style="stop-opacity:1; stop-color:#45A9B3"/>
   <stop offset="0.388235" style="stop-opacity:1; stop-color:#3FAEB0"/>
   <stop offset="1" style="stop-opacity:1; stop-color:#2CBBAB"/>
  </linearGradient>
  <linearGradient id="id1" gradientUnits="userSpaceOnUse" xlink:href="#id0" x1="123850" y1="104320" x2="201210" y2="104320">
  </linearGradient>
 </defs>
 <g id="Layer_x0020_1">
  <metadata id="CorelCorpID_0Corel-Layer"/>
  <polygon class="fil0" points="230,10 355770,10 355770,200000 230,200000 "/>
  <polygon class="fil1" points="20150,200000 19830,200000 18530,200000 18470,200000 17850,200000 17030,200000 13430,200000 12250,200000 11920,200000 9550,200000 9120,200000 7430,200000 4030,200000 2890,200000 880,200000 230,200000 230,197670 230,197650 230,196840 230,195900 230,193200 230,190810 230,190590 230,190130 230,188710 230,186790 230,182670 230,181620 230,179750 230,179650 230,179410 230,179190 230,178890 230,178020 230,177100 230,176840 230,175950 230,175180 230,175100 230,174680 230,173910 230,172900 230,172610 230,171210 230,170800 230,169740 230,167980 230,167230 230,167020 230,165210 230,163600 230,163570 230,163040 230,161180 230,158380 230,154090 230,152130 230,147020 230,140940 230,134670 32830,114330 32830,120710 42840,120710 42840,125920 50580,121160 53850,121160 162450,54460 160270,56190 158430,58040 156900,59950 155650,61860 154650,63710 153880,65440 153320,66990 153060,67850 158430,64580 159740,63790 161160,63090 162690,62510 164330,62080 166060,61830 167890,61790 169810,62000 171700,62500 173480,63310 175180,64360 176830,65610 178480,67030 180140,68560 181870,70160 183690,71780 185640,73390 187750,74920 190050,76350 192590,77620 195400,78680 197060,79120 228970,60180 228970,60180 228900,60290 228670,60590 228310,61050 227800,61640 227160,62340 226380,63110 225460,63910 224420,64730 223250,65530 199430,79640 201950,80020 205760,80200 209550,79980 212900,79340 215850,78350 218410,77070 166300,107740 167040,108110 169870,109170 171300,109540 203480,90670 203410,90780 203190,91080 202820,91540 202320,92130 201670,92830 200890,93600 199980,94400 198930,95220 197760,96020 173710,110090 176460,110510 180280,110690 184060,110470 187410,109830 190360,108850 192930,107570 160710,126300 160710,129900 170760,124080 169520,124860 168610,125660 167990,126370 167640,126880 167530,127080 160710,131030 160710,134690 170070,129280 170990,128830 171980,128540 172990,128440 173950,128520 174790,128760 175490,129140 176070,129640 176510,130240 176830,130940 177030,131710 177050,132070 207120,114790 207120,126620 202840,129060 203030,129080 204440,129590 205480,130390 206220,131400 206690,132590 206780,133020 237060,115870 235680,116710 234420,117680 233290,118770 232290,119980 231420,121300 230680,122730 230060,124250 229590,125860 229240,127550 229230,127670 240860,121120 242700,120480 244900,120250 247020,120520 248650,121250 249860,122270 250700,123440 251240,124610 251470,125360 269740,115150 268720,115730 267820,116380 267050,117100 266390,117870 265850,118690 265400,119570 265040,120480 264770,121440 264580,122420 264470,123440 264470,125260 264500,125600 273860,120400 275440,119910 277140,119710 278780,119800 280220,120130 281300,120710 282080,121420 282690,122180 283170,122950 283520,123660 283770,124290 299290,115730 298370,116380 297580,117100 296910,117870 296350,118690 295900,119570 295540,120480 295270,121440 295070,122420 294960,123440 295130,125550 295230,125900 305260,120400 306850,119910 308540,119710 310180,119800 311620,120130 312710,120710 313480,121420 314090,122180 314570,122950 314920,123660 315170,124300 315330,124800 315410,125140 315440,125260 322260,124350 304740,133840 307240,134360 310100,134800 312230,135420 313730,136200 314700,137090 315210,138060 315370,139090 315260,140140 314980,141180 314440,142100 313550,142810 302080,148960 302510,149150 304630,149760 307110,150150 309970,150290 311770,150220 313420,150040 314910,149750 316260,149360 317470,148880 318550,148320 221500,200000 216820,200000 206870,200000 205340,200000 191410,200000 186680,200000 185950,200000 182670,200000 180660,200000 177830,200000 177350,200000 175850,200000 167420,200000 159920,200000 158410,200000 156620,200000 155450,200000 153560,200000 153160,200000 150820,200000 148290,200000 146390,200000 144720,200000 138450,200000 137990,200000 130500,200000 129890,200000 126810,200000 125520,200000 122650,200000 120200,200000 117830,200000 116540,200000 113110,200000 111090,200000 110680,200000 106400,200000 104050,200000 103100,200000 100770,200000 94900,200000 93510,200000 88520,200000 86970,200000 78380,200000 78200,200000 77800,200000 76390,200000 75110,200000 71260,200000 66790,200000 63630,200000 60240,200000 59620,200000 58800,200000 50640,200000 49030,200000 47640,200000 44090,200000 41650,200000 39820,200000 35360,200000 33970,200000 32890,200000 29340,200000 29250,200000 27210,200000 "/>
  <path class="fil2" d="M21060 175320c670,1060 1150,2020 1540,3080 290,670 480,1820 2010,1820 480,0 1060,-100 1640,-480 670,-290 1150,-860 1340,-1630l580 -2020 1440 -670 90 100c-190,760 -290,1530 -290,2010 0,1730 1450,2310 2600,2310 670,0 1250,-290 1250,-960 0,-770 -390,-2120 -770,-3360 670,-680 1340,-1350 2110,-1920l100 90c380,1440 570,2880 570,3840 0,960 -380,1920 -770,2590 -670,1350 -1920,2410 -3450,2410 -1150,0 -2400,-580 -3270,-1640l-90 0c-870,1060 -2120,1920 -4130,1920l-670 0c-100,1350 -390,2310 -870,3170 -1250,2400 -4800,4040 -8160,4040 -4700,0 -7010,-2690 -7010,-6340 0,-2210 770,-4320 1830,-5760l960 380c-680,1350 -1160,2590 -1160,3840 0,3360 2790,4990 5960,4990 2970,0 6520,-1820 7200,-4030 -290,-2400 -1150,-3450 -2500,-5660 380,-670 960,-1440 1630,-2210l100 0 0 0 0 0 190 90 0 0zm54160 -12770c960,580 1920,1350 2880,2210 -580,770 -1160,1440 -2020,2020 -960,-770 -1920,-1440 -2880,-2110 670,-770 1340,-1440 1920,-2120l0 0 0 0 100 0zm470 9220c-1630,0 -2880,1060 -2880,1830 0,1630 3170,2200 7010,2200 -480,-1920 -2110,-4030 -4130,-4030zm-3550 8930c2120,0 3940,-100 5280,-380 1540,-390 2880,-1160 2880,-1730 0,-100 0,-290 -90,-480 -870,90 -1830,90 -2790,90 -2780,0 -4990,-670 -5850,-2200 -200,-480 -390,-960 -390,-1540 0,-1540 680,-3070 1830,-4030 960,-870 2010,-1350 3170,-1350 1920,0 3550,1540 4600,4040 580,1340 1060,2880 1060,4890 0,1350 -380,2400 -1150,3270 -1540,1440 -4320,2010 -8640,2010l-1920 0 0 0 -480 0c-1060,0 -1830,-190 -2400,-670l-100 0c0,290 100,480 100,670 0,960 -290,2210 -960,3170 -1920,2880 -4040,4130 -5770,4130 -1820,0 -4030,-670 -6040,-1630l380 -670c670,280 1540,480 2790,480 3260,0 7480,-3170 8060,-6150 -100,-290 -380,-570 -670,-960 -960,-1150 -1540,-2110 -2110,-3070 480,-960 960,-1730 1340,-2400l190 0c1350,2780 2690,4420 5470,4420l490 0 0 0 2010 0 0 0 0 0 -290 90 0 0zm-14020 2980c200,-1350 290,-2790 290,-4130l0 -2020c0,-3740 -480,-9220 -860,-12770 670,-770 1630,-1630 2400,-2210l190 100c480,4510 670,9700 670,14500 0,1250 -90,2490 -190,3360 -100,1150 -770,2010 -2110,3360l-290 -100 -100 -90 0 0zm-14490 -5960c90,1730 960,3170 3930,3170 1920,0 3460,-480 5280,-1340 290,-100 480,-290 480,-480 0,-1150 -860,-2590 -2300,-3940 -1340,-1250 -3270,-2400 -4900,-3070 -570,-290 -770,-480 -770,-770 0,-480 680,-1540 1250,-2300l190 0c1920,1050 4130,2590 5760,4220 1450,1540 2410,3170 2410,4900 0,1250 -390,2490 -1060,3650 -2110,1050 -4420,1920 -6720,1920 -2790,0 -4610,-1350 -4610,-4320 0,-290 0,-870 100,-1540l960 0 0 0 0 0 0 -100 0 0zm-5000 -4990l1730 2790c670,1050 1250,2110 1250,3930l0 2310c0,1820 -1150,3740 -3070,5760 -1440,1340 -2790,1920 -4040,1920 -1820,0 -3840,-580 -6240,-1630l290 -680c770,200 1630,390 2690,390 3460,0 6910,-2500 8550,-5570 190,-390 280,-670 280,-860 0,-390 -190,-770 -380,-1060 -860,-1630 -1820,-3170 -2880,-4510 570,-870 1150,-1730 1730,-2600l90 0 0 0 0 0 0 -190 0 0z"/>
  <g id="_2460876241392">
   <path class="fil3" d="M322260 124350l-6820 910c0,0 -460,-2730 -2730,-4550 -2280,-1820 -10020,-1370 -10020,3180 0,4100 3190,3640 9560,5010 5920,1360 10920,3180 10920,11370 0,4560 -3180,10020 -13200,10020 -16380,0 -15010,-12290 -15010,-12290l7280 0c0,0 450,4100 3180,5000 3190,1370 8650,920 9560,-1820 910,-2730 910,-5910 -7740,-6820 -8640,-1370 -12280,-5010 -12280,-10920 450,-5470 3640,-10020 15010,-10020 11380,460 12290,10930 12290,10930l0 0zm-31400 0l-6820 910c0,0 -460,-2730 -2740,-4550 -2270,-1820 -10010,-1370 -10010,3180 0,4100 3190,3640 9560,5010 5920,1360 10920,3180 10920,11370 0,4560 -3180,10020 -13200,10020 -16380,0 -15010,-12290 -15010,-12290l7730 0c0,0 460,4100 3190,5000 3180,1370 8640,920 9560,-1820 900,-2730 900,-5910 -7740,-6820 -7740,-910 -11830,-4100 -11830,-9100l0 -1820c450,-5470 3640,-10020 14560,-10020 10470,460 11830,10930 11830,10930zm-38680 12740l7740 0 0 450c-460,2730 -1820,12290 -15020,12290 -11830,0 -15930,-9100 -15930,-18660 0,-10010 5920,-17290 16840,-17290 12290,0 13200,11830 13200,11830l-7290 910c0,0 -450,-6370 -6820,-6370 -6370,0 -8650,5010 -8650,10920 0,5920 1820,12750 8190,12750 6370,0 7740,-6830 7740,-6830l0 0zm-38680 -22300l0 34590 -6380 0 0 -3190c0,0 -2270,4100 -7730,4100 -5920,0 -10010,-2730 -10470,-13200 0,-10920 6830,-13650 11380,-13650 4100,0 6820,3180 6820,3180l0 -11830 6380 0zm-6380 21840c0,-3640 -450,-7730 -5910,-7730 -5460,0 -5460,6370 -5460,8190 0,2270 450,7280 5460,7280 5010,0 5910,-4100 5910,-7740l0 0zm-23200 -4550l0 16840 -6830 0 0 -16380c0,-2280 -1360,-4100 -4100,-4100 -2730,0 -5460,2280 -5460,4550l0 15930 -6820 0 0 -25480 6820 0 0 3640c0,0 2280,-4550 9100,-4100 7740,910 7290,8190 7290,9100zm-35500 -8190l6830 0 0 25490 -6830 0 0 -25490zm0 -9100l6830 0 0 5920 -6830 0 0 -5920zm-2730 9100l-7280 25490 -6830 0 -4550 -16840 -4550 16840 -6370 0 -7280 -25490 7280 0 3640 16380 5000 -16380 5920 0 4100 16840 3640 -16840 7280 0zm-46870 -9560l6820 0 0 34590 -6820 0 0 -34590zm-12290 9560l6820 0 0 25490 -6820 0 0 -25490zm0 -9100l6820 0 0 5920 -6820 0 0 -5920zm-5460 18200l0 15930 -6370 0 0 -3180c0,0 -1820,2270 -4560,3180 -4090,1370 -10010,460 -11830,-4090 -1360,-3650 0,-7740 3640,-9560 4550,-2280 12290,-1820 12290,-1820 0,0 460,-1820 -460,-3190 -450,-1360 -1820,-1820 -3640,-1820 -4550,0 -4550,3190 -4550,3190l-6370 -460c0,0 0,-3180 3190,-5460 1820,-1360 4090,-1820 8190,-1820 5010,0 10470,1820 10470,9100l0 0zm-10470 11380c4550,-910 4100,-6370 4100,-6370l-1820 0c-1370,0 -3190,0 -4560,450 -2270,460 -3180,1370 -3640,2280 -450,1370 0,2730 1370,3640 910,460 2270,460 4550,0l0 0zm-9560 -30040l0 6830 -10460 0 0 28220 -7740 0 0 -28670 -10010 0 0 -6380 28210 0z"/>
   <path class="fil4" d="M228970 60180c0,0 -6370,9560 -17290,7740 -10930,-1820 -12750,-18210 -32310,-18210 -24120,0 -26850,20480 -26850,20480 0,0 6820,-10010 17290,-8190 10470,1820 14560,18200 35950,18200 21390,0 23210,-20020 23210,-20020l0 0z"/>
   <path class="fil5" d="M203480 90670c0,0 -6370,9560 -17290,7740 -10920,-1820 -12740,-18210 -32310,-18210 -24120,0 -26850,20480 -26850,20480 0,0 6830,-10010 17290,-8190 10020,1820 14570,18200 35960,18200 21380,0 23200,-20020 23200,-20020l0 0z"/>
  </g>
 </g>
</svg>
